<svg xmlns="http://www.w3.org/2000/svg">

<symbol xmlns="http://www.w3.org/2000/svg" id="logo"  viewBox="0 0 26 32">
<path d="M12.6267 13.0916C12.3334 12.8002 12.0375 12.628 11.7568 12.5575C11.472 12.4859 11.1968 12.5174 10.9548 12.633C10.6984 12.7553 10.4703 12.9734 10.2951 13.266C10.0742 13.635 9.94147 14.118 9.94147 14.6789C9.94147 15.6804 10.402 17.2003 11.1267 18.359C11.6579 19.2085 12.3124 19.8404 12.9805 19.8404C13.6443 19.8404 14.2895 19.2129 14.8121 18.3684C15.5302 17.2081 15.982 15.683 15.982 14.6789C15.982 14.1122 15.8499 13.6254 15.6296 13.2552C15.4578 12.9664 15.2341 12.7513 14.9823 12.6306C14.747 12.5178 14.4793 12.4871 14.2014 12.5575C13.9222 12.6282 13.6273 12.8004 13.3345 13.0916C13.1392 13.2856 12.8223 13.2856 12.6271 13.0916H12.6267ZM12.2675 30.7643C12.2675 31.0389 12.0436 31.2614 11.7673 31.2614C11.4909 31.2614 11.267 31.0389 11.267 30.7643V23.9565C11.1763 24.0109 11.0843 24.0632 10.9915 24.1137C9.51528 24.9156 7.81717 25.2149 6.23242 25.1243L6.21991 25.1237C4.62225 25.0305 3.12645 24.539 2.07519 23.7647C1.58264 23.4019 1.18347 22.9748 0.910171 22.4936C0.864385 22.4258 0.834533 22.3461 0.826869 22.2589C0.803068 21.9855 1.00699 21.7446 1.2821 21.7209C1.89406 21.6676 2.45398 21.5541 2.96448 21.3844C3.47256 21.2152 3.93829 20.9889 4.36327 20.7085C4.77292 20.4385 5.06841 20.1363 5.34554 19.8527C5.65616 19.535 5.94742 19.2369 6.3375 18.998C6.26529 18.9591 6.1947 18.9192 6.12572 18.8786C5.38346 18.9699 4.43205 18.8573 3.55828 18.5003C2.7652 18.1762 2.02698 17.6497 1.54694 16.8894C1.12639 16.2234 0.881126 15.5507 0.768578 14.9092C0.611857 14.0156 0.712505 13.1794 0.95515 12.5011C1.2101 11.7888 1.63064 11.2354 2.08951 10.9494C2.14518 10.9145 2.20165 10.8834 2.25853 10.856C2.10262 10.4417 1.99491 10.0306 1.95215 9.63314C1.86865 8.85525 1.90778 8.16997 2.03545 7.58069C2.21355 6.75891 2.56431 6.11592 2.99776 5.66134C3.38724 5.25285 3.84571 4.9945 4.31304 4.89027C4.44576 3.75561 4.86126 2.94205 5.42522 2.38404C5.81369 1.99941 6.26913 1.74005 6.74978 1.58311C7.21873 1.43018 7.71249 1.37566 8.19092 1.39811C8.89909 1.43118 9.58204 1.63823 10.1079 1.94509L10.1351 1.91763C10.8683 1.18906 11.8814 0.738281 13.0002 0.738281C14.1191 0.738281 15.1322 1.18906 15.8654 1.91763L15.8932 1.9457C16.4191 1.63843 17.1026 1.43118 17.8112 1.39811C18.2896 1.37566 18.7836 1.43018 19.2523 1.58311C19.733 1.74005 20.1884 1.99941 20.5769 2.38404C21.1406 2.94205 21.5561 3.75561 21.6891 4.89027C22.1564 4.9945 22.6149 5.25285 23.0043 5.66134C23.438 6.11592 23.7888 6.75891 23.9667 7.58069C24.0943 8.16997 24.1337 8.85525 24.05 9.63314C24.0072 10.0304 23.8995 10.4417 23.7436 10.856C23.8005 10.8834 23.8569 10.9145 23.9126 10.9494C24.3713 11.2354 24.792 11.789 25.047 12.5011C25.2896 13.1792 25.3902 14.0156 25.2335 14.9092C25.121 15.5507 24.8757 16.2234 24.4552 16.8894C23.9751 17.6497 23.2369 18.1762 22.4438 18.5003C21.5697 18.8575 20.618 18.9701 19.8756 18.8786C19.7929 18.9275 19.708 18.9746 19.6208 19.0205C19.993 19.2556 20.276 19.545 20.5769 19.8529C20.854 20.1363 21.1497 20.4387 21.5592 20.7087C21.9841 20.9889 22.4499 21.2154 22.958 21.3846C23.4685 21.5543 24.0286 21.6678 24.6403 21.7211L24.6401 21.7227C24.7067 21.7283 24.7733 21.7474 24.8356 21.7812C25.0772 21.9121 25.1666 22.213 25.0349 22.4531C24.7611 22.9506 24.3537 23.3913 23.8476 23.7641C22.796 24.5386 21.2988 25.0303 19.6987 25.1235C18.1099 25.2161 16.4065 24.917 14.9265 24.1131C14.8351 24.0636 14.7445 24.0119 14.6552 23.9585V30.7643C14.6552 31.0389 14.4313 31.2614 14.155 31.2614C13.8786 31.2614 13.6548 31.0389 13.6548 30.7643V23.243C13.4107 23.0354 13.1779 22.8093 12.9589 22.5639C12.7409 22.8081 12.5093 23.0329 12.2667 23.2398V30.7643H12.2675ZM3.10708 22.3797C4.86671 22.6776 6.57208 21.8109 8.18668 20.9899C8.81821 20.6688 9.43702 20.3543 10.05 20.107C9.44872 20.0194 8.81155 19.8919 8.19677 19.7202C8.00576 19.6669 7.81677 19.6089 7.6308 19.5466C6.8714 19.715 6.48918 20.1058 6.06077 20.544C5.74673 20.8653 5.4117 21.2078 4.91431 21.5357C4.41934 21.862 3.87556 22.1262 3.28095 22.324C3.22346 22.3433 3.16537 22.3617 3.10708 22.3795V22.3797ZM12.0357 20.6139C10.9857 20.679 9.83739 21.2627 8.6399 21.8714C7.00815 22.701 5.2929 23.5727 3.44876 23.4352C4.25354 23.8265 5.23663 24.0726 6.2782 24.1333L6.28466 24.1337C7.70099 24.2149 9.21132 23.9515 10.5145 23.2438C11.2892 22.8229 11.9922 22.2432 12.5589 21.4834C12.7229 21.2635 13.0353 21.2176 13.2566 21.3806C13.2994 21.412 13.3357 21.4491 13.3651 21.49C13.9307 22.2462 14.6316 22.8237 15.4041 23.2434C16.7103 23.9529 18.2251 24.2161 19.6448 24.1333C20.6858 24.0726 21.6687 23.8267 22.4737 23.4352C20.6295 23.5725 18.9147 22.701 17.2829 21.8714C16.0977 21.2689 14.9608 20.6909 13.9194 20.6161C13.6215 20.7564 13.3074 20.8346 12.9803 20.8346C12.6519 20.8346 12.336 20.7558 12.0357 20.6139ZM15.8878 20.113C16.4959 20.3594 17.1099 20.6714 17.7364 20.9899C19.351 21.8107 21.0563 22.6776 22.816 22.3797C22.7577 22.3619 22.6996 22.3435 22.6421 22.3242C22.0475 22.1264 21.5039 21.8622 21.0087 21.5359C20.5113 21.208 20.1763 20.8655 19.8623 20.5442C19.4419 20.1142 19.066 19.7298 18.3346 19.5564C18.1587 19.6145 17.9798 19.6687 17.7993 19.7188C17.1647 19.8954 16.506 20.025 15.8878 20.113ZM12.516 11.788V8.0457C12.3927 7.33957 12.0153 6.6148 11.4326 6.08325C10.9145 5.61083 10.2303 5.29615 9.41625 5.29615C9.29644 5.29615 9.18409 5.30517 9.07981 5.3224C8.45777 5.42623 7.94525 5.83191 7.5834 6.43922C7.19231 7.09604 6.97487 7.98216 6.97487 8.98914C6.97487 9.39662 7.00977 9.81854 7.08218 10.2477C7.20501 10.9748 7.56827 11.7441 8.02351 12.4236C8.34583 12.9046 8.70929 13.3348 9.06287 13.6695C9.14799 13.3337 9.27485 13.0285 9.435 12.7609C9.71113 12.2995 10.0881 11.9477 10.5246 11.7395C10.9754 11.5244 11.481 11.4641 11.9988 11.5942C12.1713 11.6375 12.3441 11.7016 12.5158 11.7878L12.516 11.788ZM13.5164 8.19282V11.7515C13.6624 11.6834 13.8089 11.6313 13.9547 11.5942C14.469 11.4641 14.9698 11.5234 15.4156 11.7373C15.8452 11.9433 16.2161 12.2921 16.4886 12.7503C16.6621 13.0417 16.7966 13.3786 16.8809 13.7513C17.1863 13.4747 17.5024 13.1231 17.7959 12.726L17.7819 12.7128C17.8067 12.6867 17.8332 12.6615 17.8606 12.6372C17.9108 12.5673 17.9602 12.4961 18.0086 12.4238C18.4639 11.7443 18.8273 10.975 18.95 10.2479C19.0224 9.81874 19.0573 9.39682 19.0573 8.98934C19.0573 7.98256 18.8401 7.09624 18.4488 6.43942C18.0869 5.83211 17.5746 5.42643 16.9523 5.32261C16.8481 5.30537 16.7359 5.29635 16.6159 5.29635C15.8045 5.29635 15.1262 5.60963 14.6132 6.08045C14.0061 6.63765 13.6257 7.41012 13.5228 8.15133C13.5212 8.16536 13.5188 8.17919 13.516 8.19302L13.5164 8.19282ZM8.94487 14.8619C8.46846 14.5179 7.94868 13.9966 7.48497 13.3837C7.322 13.2253 7.00109 13.1321 6.64994 13.1251C6.30261 13.1181 5.94742 13.2007 5.70417 13.3931C5.60392 13.4724 5.50549 13.5703 5.41332 13.6837C5.1146 14.0517 4.88325 14.572 4.85199 15.1573C4.82072 15.7452 4.99439 16.4026 5.50852 17.0444C5.69469 17.2767 5.92442 17.5068 6.20357 17.7305C6.76248 18.1786 7.58683 18.519 8.46624 18.7649C9.13467 18.9517 9.82832 19.0822 10.4629 19.1636C10.3997 19.0724 10.338 18.979 10.2781 18.8832C9.50217 17.6427 8.99469 16.015 8.94467 14.8617L8.94487 14.8619ZM15.4816 19.168C16.1302 19.0868 16.8434 18.9545 17.5294 18.7635C18.4131 18.5176 19.2408 18.1776 19.7985 17.7305C20.0777 17.5066 20.3076 17.2765 20.4936 17.0444C21.0077 16.4026 21.1816 15.7452 21.1501 15.1573C21.1189 14.572 20.8877 14.0519 20.5888 13.6837C20.4966 13.5703 20.3982 13.4722 20.2979 13.3931C20.0547 13.2007 19.6995 13.1181 19.3522 13.1251C19.0496 13.1311 18.7693 13.2013 18.5934 13.3219C18.0815 14.0112 17.4957 14.5903 16.9737 14.941C16.9062 16.0905 16.4138 17.6761 15.6635 18.889C15.6046 18.9842 15.5439 19.0772 15.4816 19.1682V19.168ZM16.502 2.73861C16.7821 3.21564 16.9663 3.75501 17.0286 4.33066C17.058 4.33467 17.0873 4.33908 17.1165 4.34409C17.9727 4.4868 18.6749 4.98608 19.1799 5.73209C19.2739 5.64029 19.3764 5.5519 19.4875 5.46812C19.8106 5.22499 20.208 5.02336 20.6856 4.9063C20.571 4.06989 20.2717 3.48122 19.8736 3.08717C19.6031 2.81939 19.2832 2.63799 18.9435 2.52695C18.592 2.41231 18.2198 2.37162 17.858 2.38845C17.3519 2.4121 16.8727 2.54339 16.502 2.73841V2.73861ZM23.3341 11.7611L23.3301 11.769C22.9313 12.5282 22.4111 13.2748 21.8817 13.9365C22.0275 14.2916 22.1245 14.6873 22.1467 15.1068C22.1897 15.9147 21.9595 16.8077 21.2752 17.6619C21.2233 17.7267 21.1687 17.7912 21.1114 17.8555C21.4266 17.8018 21.751 17.7122 22.0652 17.5837C22.683 17.3314 23.2522 16.9303 23.6117 16.3613C23.9568 15.8149 24.1575 15.2651 24.2492 14.7422C24.3745 14.0272 24.2964 13.3644 24.1056 12.8313C23.9269 12.3322 23.6595 11.9614 23.3817 11.7882C23.366 11.7784 23.3501 11.7694 23.3343 11.7609L23.3341 11.7611ZM19.6662 6.68235C19.9208 7.35681 20.0579 8.14191 20.0579 8.98914C20.0579 9.44252 20.0178 9.91895 19.9349 10.4108C19.8375 10.9877 19.6212 11.5761 19.3348 12.1346C19.8937 12.1237 20.4847 12.2725 20.9194 12.6162C21.0628 12.7296 21.2028 12.8665 21.3339 13.0227C21.7459 12.4829 22.1382 11.898 22.4468 11.3106C22.7684 10.6984 22.9975 10.0865 23.0576 9.52851C23.1292 8.86187 23.0969 8.28081 22.99 7.78674C22.8533 7.15557 22.5957 6.67433 22.2817 6.34502C21.992 6.04136 21.658 5.87039 21.3367 5.83632C21.2219 5.82409 21.1076 5.8297 20.9968 5.85335C20.6299 5.93192 20.3294 6.07984 20.0894 6.26044C19.9185 6.38891 19.7784 6.53403 19.6662 6.68255V6.68235ZM9.49894 2.73761C9.12842 2.54299 8.64979 2.4121 8.14433 2.38845C7.78248 2.37162 7.41034 2.4121 7.05878 2.52695C6.71932 2.63779 6.39922 2.81939 6.12874 3.08717C5.73059 3.48122 5.43127 4.06989 5.3167 4.9063C5.79453 5.02336 6.19167 5.22499 6.5148 5.46812C6.63319 5.55711 6.74151 5.65172 6.84034 5.74973C7.346 4.99389 8.05256 4.4878 8.91563 4.34389C8.93418 4.34088 8.95274 4.33787 8.9713 4.33507C9.03302 3.75742 9.21777 3.21605 9.49874 2.73761H9.49894ZM9.97858 4.34068C10.8205 4.45793 11.5395 4.83415 12.1085 5.35327C12.4827 5.69441 12.7909 6.09889 13.0255 6.53222C13.2582 6.09768 13.5646 5.69221 13.9373 5.35007C14.494 4.83916 15.1968 4.46695 16.0225 4.34509C15.9291 3.67564 15.6161 3.07614 15.1578 2.62076C14.6056 2.07217 13.8427 1.73263 13 1.73263C12.1573 1.73263 11.3945 2.07197 10.8423 2.62076C10.3852 3.07514 10.0724 3.67303 9.97818 4.34068H9.97858ZM4.89112 17.8555C4.83363 17.7912 4.77917 17.7267 4.72713 17.6619C4.04277 16.8079 3.81263 15.9149 3.85559 15.1068C3.87798 14.6873 3.97479 14.2914 4.12062 13.9365C3.59116 13.2748 3.07078 12.5282 2.67222 11.769L2.66818 11.7611C2.65245 11.7694 2.63672 11.7784 2.62078 11.7884C2.34304 11.9616 2.07559 12.3324 1.89689 12.8315C1.70608 13.3646 1.62782 14.0274 1.75328 14.7424C1.84485 15.2653 2.04574 15.8151 2.39085 16.3615C2.75028 16.9305 3.31947 17.3316 3.93728 17.584C4.25132 17.7122 4.57586 17.802 4.89112 17.8557V17.8555ZM4.66844 13.0227C4.79954 12.8665 4.93932 12.7298 5.08293 12.6162C5.518 12.2718 6.10999 12.1233 6.6695 12.1346L6.69774 12.1354C6.41112 11.5767 6.1947 10.9879 6.09728 10.4108C6.01438 9.91916 5.97424 9.44252 5.97424 8.98914C5.97424 8.15293 6.10777 7.37745 6.35586 6.70921C6.24049 6.55147 6.09385 6.39653 5.91272 6.26044C5.6727 6.07984 5.37237 5.93192 5.00528 5.85335C4.89475 5.8297 4.78018 5.82409 4.66541 5.83632C4.34411 5.87039 4.01009 6.04136 3.72045 6.34502C3.40641 6.67433 3.14883 7.15577 3.01208 7.78674C2.90498 8.28081 2.87271 8.86187 2.94451 9.52851C3.00462 10.0865 3.23375 10.6986 3.55526 11.3106C3.86386 11.8982 4.25617 12.4831 4.66824 13.0227H4.66844Z"/>
</symbol>

<symbol xmlns="http://www.w3.org/2000/svg" id="idea"  viewBox="0 0 24 34">
<path d="M5.33 27h13.34v2.67a4 4 0 0 1-4 4H9.33a4 4 0 0 1-4-4V27Z" fill="#6243E6"/><path opacity=".4" d="M5.33 27h13.34v-4.38c0-.65.32-1.26.82-1.68a11.67 11.67 0 1 0-14.99 0c.5.42.83 1.03.83 1.68V27Z" fill="#6243E6"/><path fill-rule="evenodd" clip-rule="evenodd" d="M7.78 11.12a1.25 1.25 0 0 1 1.77 0L12 13.57l2.45-2.45a1.25 1.25 0 0 1 1.77 1.76l-2.97 2.97v12.82a1.25 1.25 0 0 1-2.5 0V15.85l-2.97-2.97a1.25 1.25 0 0 1 0-1.76Z" fill="#6243E6"/>
</symbol>

<symbol xmlns="http://www.w3.org/2000/svg" id="project"  viewBox="0 0 34 30">
<path opacity=".4" d="M30.33 0h-20A3.33 3.33 0 0 0 7 3.33v5C7 9.25 6.25 10 5.33 10a5 5 0 0 0 0 10c.92 0 1.67.75 1.67 1.67v5C7 28.5 8.5 30 10.33 30h3.34c.92 0 1.66-.75 1.66-1.67a5 5 0 0 1 10 0c0 .92.75 1.67 1.67 1.67h3.33c1.84 0 3.34-1.5 3.34-3.33v-5c0-.92-.75-1.67-1.67-1.67a5 5 0 1 1 0-10c.92 0 1.67-.75 1.67-1.67v-5c0-1.84-1.5-3.33-3.34-3.33Z" fill="#6243E6"/>
</symbol>

<symbol xmlns="http://www.w3.org/2000/svg" id="test"  viewBox="0 0 20 36">
<path fill-rule="evenodd" clip-rule="evenodd" d="M12.58 10.54A8.75 8.75 0 0 1 8 26.75H1.33a1.25 1.25 0 1 0 0 2.5h5.42v4.17H3a1.25 1.25 0 0 0 0 2.5h10a1.25 1.25 0 1 0 0-2.5H9.25v-4.24a11.25 11.25 0 0 0 3.33-21.46v2.82Z" fill="#6243E6"/><path fill-rule="evenodd" clip-rule="evenodd" d="M6.75 19.25v2.08a1.25 1.25 0 1 0 2.5 0v-2.08h-2.5ZM8 .08c.69 0 1.25.56 1.25 1.25v2.09h-2.5V1.33C6.75.64 7.31.08 8 .08Z" fill="#6243E6"/><path opacity=".4" d="M3.42 6.33c0-1.6 1.3-2.91 2.91-2.91h3.34c1.6 0 2.91 1.3 2.91 2.91v10c0 1.61-1.3 2.92-2.91 2.92H6.33a2.92 2.92 0 0 1-2.91-2.92v-10Z" fill="#6243E6"/>
</symbol>

<symbol xmlns="http://www.w3.org/2000/svg" id="support"  viewBox="0 0 34 34">
<path d="M33.67 23.67V10.33a9.97 9.97 0 0 0-2.93-7.07L21.7 12.3a6.65 6.65 0 0 1 0 9.42l9.03 9.03a9.97 9.97 0 0 0 2.93-7.07ZM.33 10.33v13.34a9.97 9.97 0 0 0 2.93 7.07l9.03-9.03a6.65 6.65 0 0 1 0-9.42L3.26 3.26a9.97 9.97 0 0 0-2.93 7.07Z" fill="#6243E6"/><path d="M23.67.33H10.33a9.97 9.97 0 0 0-7.07 2.93l9.03 9.03a6.65 6.65 0 0 1 9.43 0l9.02-9.03A9.97 9.97 0 0 0 23.67.33ZM10.33 33.67h13.34a9.97 9.97 0 0 0 7.07-2.93l-9.02-9.03a6.65 6.65 0 0 1-9.43 0l-9.03 9.03a9.97 9.97 0 0 0 7.07 2.93Z" opacity=".4" fill="#6243E6"/>
</symbol>

<symbol xmlns="http://www.w3.org/2000/svg" id="tel"  viewBox="0 0 22 22">
<path d="M7.38 7.85a14.6 14.6 0 0 0 6.86 6.86c.12.06.18.09.26.11a1.05 1.05 0 0 0 1.1-.36 5 5 0 0 1 .7-.64 2 2 0 0 1 2.18 0 5 5 0 0 1 .7.64l.2.2c.53.52.8.79.94 1.07a2 2 0 0 1 0 1.8 5 5 0 0 1-.94 1.1l-.16.15c-.53.53-.8.8-1.15 1-.4.22-1.02.38-1.48.38-.41 0-.7-.08-1.26-.24a19.04 19.04 0 0 1-8.29-4.87 19.04 19.04 0 0 1-4.87-8.29 4.23 4.23 0 0 1-.24-1.26c0-.46.16-1.08.38-1.48.2-.36.47-.62 1-1.15l.16-.16a5 5 0 0 1 1.08-.94 2 2 0 0 1 1.8 0c.3.14.56.41 1.09.94l.2.2c.34.35.52.52.63.7a2 2 0 0 1 0 2.18 5.1 5.1 0 0 1-.64.7 1.05 1.05 0 0 0-.25 1.37Z" stroke="#BDADFF" stroke-width="2" stroke-linecap="round" stroke-linejoin="round"/>
</symbol>

<symbol xmlns="http://www.w3.org/2000/svg" id="mail"  viewBox="0 0 22 18">
<path d="m20.5 15-6.64-6M8.14 9 1.5 15M1 4l8.16 5.72c.67.46 1 .69 1.36.78a2 2 0 0 0 .96 0c.36-.09.7-.32 1.36-.78L21 4M5.8 17h10.4c1.68 0 2.52 0 3.16-.33a3 3 0 0 0 1.31-1.3c.33-.65.33-1.49.33-3.17V5.8c0-1.68 0-2.52-.33-3.16a3 3 0 0 0-1.3-1.31C18.71 1 17.87 1 16.2 1H5.8c-1.68 0-2.52 0-3.16.33a3 3 0 0 0-1.31 1.3C1 3.29 1 4.13 1 5.8v6.4c0 1.68 0 2.52.33 3.16a3 3 0 0 0 1.3 1.31c.65.33 1.49.33 3.17.33Z" stroke="#BDADFF" stroke-width="2" stroke-linecap="round" stroke-linejoin="round"/>
</symbol>

<symbol xmlns="http://www.w3.org/2000/svg" id="map"  viewBox="0 0 18 22">
<path d="M9 12a3 3 0 1 0 0-6 3 3 0 0 0 0 6Z" stroke="#BDADFF" stroke-width="2" stroke-linecap="round" stroke-linejoin="round"/><path d="M9 21c4-4 8-7.58 8-12A8 8 0 1 0 1 9c0 4.42 4 8 8 12Z" stroke="#BDADFF" stroke-width="2" stroke-linecap="round" stroke-linejoin="round"/>
</symbol>

<symbol xmlns="http://www.w3.org/2000/svg" id="doc"  viewBox="0 0 18 22">
<path d="M11 1.27V5.4c0 .56 0 .84.1 1.05a1 1 0 0 0 .45.44c.21.11.49.11 1.05.11h4.13M11 16H5m8-4H5m12-3.01v7.21c0 1.68 0 2.52-.33 3.16a3 3 0 0 1-1.3 1.31c-.65.33-1.49.33-3.17.33H5.8c-1.68 0-2.52 0-3.16-.33a3 3 0 0 1-1.31-1.3C1 18.71 1 17.87 1 16.2V5.8c0-1.68 0-2.52.33-3.16a3 3 0 0 1 1.3-1.31C3.29 1 4.13 1 5.8 1h3.21c.74 0 1.1 0 1.45.08.3.08.6.2.86.36.3.19.57.45 1.09.97l3.18 3.18c.52.52.78.78.97 1.09a3 3 0 0 1 .36.86C17 7.9 17 8.25 17 9Z" stroke="#BDADFF" stroke-width="2" stroke-linecap="round" stroke-linejoin="round"/>
</symbol>

</svg>
